HIERARCHY
ROOT root
{
	OFFSET 0.000000 0.000000 0.000000
	CHANNELS 6 Xposition Yposition Zposition Zrotation Yrotation Xrotation
	JOINT lhip
	{
		OFFSET 0.058581 -0.082280 -0.017664
		CHANNELS 3 Zrotation Yrotation Xrotation
		JOINT lknee
		{
			OFFSET 0.043451 -0.386469 0.008037
			CHANNELS 3 Zrotation Yrotation Xrotation
			JOINT lankle
			{
				OFFSET -0.014790 -0.426874 -0.037428
				CHANNELS 3 Zrotation Yrotation Xrotation
				JOINT ltoe
				{
					OFFSET 0.041054 -0.060286 0.122042
					CHANNELS 3 Zrotation Yrotation Xrotation
					End Site
					{
						OFFSET 0.000000 0.000000 0.000000
					}
				}
			}
		}
	}
	JOINT rhip
	{
		OFFSET -0.060310 -0.090513 -0.013543
		CHANNELS 3 Zrotation Yrotation Xrotation
		JOINT rknee
		{
			OFFSET -0.043257 -0.383688 -0.004843
			CHANNELS 3 Zrotation Yrotation Xrotation
			JOINT rankle
			{
				OFFSET 0.019056 -0.420046 -0.034562
				CHANNELS 3 Zrotation Yrotation Xrotation
				JOINT rtoe
				{
					OFFSET -0.034840 -0.062106 0.130323
					CHANNELS 3 Zrotation Yrotation Xrotation
					End Site
					{
						OFFSET 0.000000 0.000000 0.000000
					}
				}
			}
		}
	}
	JOINT lowerback
	{
		OFFSET 0.004439 0.124404 -0.038385
		CHANNELS 3 Zrotation Yrotation Xrotation
		JOINT upperback
		{
			OFFSET 0.004488 0.137956 0.026820
			CHANNELS 3 Zrotation Yrotation Xrotation
			JOINT chest
			{
				OFFSET -0.002265 0.056032 0.002855
				CHANNELS 3 Zrotation Yrotation Xrotation
				JOINT lowerneck
				{
					OFFSET -0.013390 0.211636 -0.033468
					CHANNELS 3 Zrotation Yrotation Xrotation
					JOINT upperneck
					{
						OFFSET 0.010113 0.088937 0.050410
						CHANNELS 3 Zrotation Yrotation Xrotation
						End Site
						{
							OFFSET 0.000000 0.000000 0.000000
						}
					}
				}
				JOINT lclavicle
				{
					OFFSET 0.071702 0.114000 -0.018898
					CHANNELS 3 Zrotation Yrotation Xrotation
					JOINT lshoulder
					{
						OFFSET 0.122921 0.045205 -0.019046
						CHANNELS 3 Zrotation Yrotation Xrotation
						JOINT lelbow
						{
							OFFSET 0.255332 -0.015649 -0.022946
							CHANNELS 3 Zrotation Yrotation Xrotation
							JOINT lwrist
							{
								OFFSET 0.265709 0.012698 -0.007375
								CHANNELS 3 Zrotation Yrotation Xrotation
								End Site
								{
									OFFSET 0.000000 0.000000 0.000000
								}
							}
						}
					}
				}
				JOINT rclavicle
				{
					OFFSET -0.082954 0.112472 -0.023707
					CHANNELS 3 Zrotation Yrotation Xrotation
					JOINT rshoulder
					{
						OFFSET -0.113228 0.046853 -0.008472
						CHANNELS 3 Zrotation Yrotation Xrotation
						JOINT relbow
						{
							OFFSET -0.260127 -0.014369 -0.031269
							CHANNELS 3 Zrotation Yrotation Xrotation
							JOINT rwrist
							{
								OFFSET -0.269108 0.006794 -0.006027
								CHANNELS 3 Zrotation Yrotation Xrotation
								End Site
								{
									OFFSET 0.000000 0.000000 0.000000
								}
							}
						}
					}
				}
			}
		}
	}
}
MOTION
Frames: 11
Frame Time: 0.033333
-0.240853 0.556836 0.869663 170.845956 2.442169 107.122688 14.844624 3.643628 -60.436723 -9.153553 11.600410 55.543404 1.865932 0.275509 -18.598098 0.000000 -0.000000 0.000000 -16.575203 -6.073493 -28.491442 -9.548324 -5.635987 50.787370 11.650402 -12.726894 -21.780387 0.000000 -0.000000 0.000000 -1.381014 6.430621 49.143851 -2.784058 -5.291270 -8.740223 1.360758 -3.778369 -2.700815 -15.857887 4.619522 -28.388926 -1.186690 5.637874 -1.565736 -27.333771 -33.151581 8.520928 -57.047330 -24.675862 25.581147 -10.351933 -31.107144 39.586964 2.424575 -17.601879 -3.267689 24.918806 28.370546 6.881624 46.217688 9.027444 5.797364 3.915066 10.374124 -21.604338 6.240972 17.476301 -38.407923 
-0.252410 0.569391 0.877934 171.015086 3.138647 107.807841 14.743682 2.429121 -59.736042 -8.919985 11.232232 54.613851 2.352932 0.936174 -19.158187 0.000000 -0.000000 0.000000 -16.002299 -6.880699 -27.377241 -9.223211 -7.110333 47.537019 11.799448 -12.600634 -20.599690 0.000000 -0.000000 0.000000 -0.870669 6.185492 47.995792 -2.690722 -5.615758 -8.624695 1.118842 -3.401403 -2.540059 -15.015840 5.081529 -28.817706 -0.899840 4.821888 -1.678218 -26.619172 -32.764114 8.205603 -55.981514 -24.100289 25.176332 -11.894209 -34.590763 40.415375 -0.071879 -17.539253 -3.448057 24.128127 28.607370 6.771125 47.482179 10.172828 5.827954 2.026140 8.041045 -21.793173 8.225620 16.730117 -32.289583 
-0.261141 0.580681 0.886463 170.339121 3.947329 108.300020 15.161994 1.718154 -58.549069 -8.899012 11.239981 53.344247 2.707865 1.973677 -19.469361 0.000000 -0.000000 0.000000 -15.212804 -6.927566 -26.882940 -8.419081 -8.044143 44.844561 11.781491 -11.930183 -19.993644 0.000000 -0.000000 0.000000 -0.938159 6.527598 46.696246 -2.812068 -5.352309 -8.571191 0.977385 -3.320274 -2.280654 -14.038112 5.225645 -29.227656 0.094480 3.888840 -2.156123 -25.807259 -31.545958 7.363281 -54.228588 -23.235692 24.282537 -15.097364 -38.784430 43.499265 -1.905866 -17.224017 -5.915191 23.706180 28.403142 6.250044 48.773853 10.204477 6.562534 -0.533542 8.600615 -19.814031 7.875799 15.301752 -27.698250 
-0.267813 0.591046 0.895017 169.457550 4.462966 108.214468 14.999562 0.862932 -56.539731 -8.561109 10.796151 51.486965 2.895236 3.059424 -19.426711 0.000000 -0.000000 0.000000 -14.490264 -6.661472 -26.449695 -7.809483 -8.439788 42.924172 11.890375 -11.311062 -19.572384 0.000000 -0.000000 0.000000 -1.156377 7.326809 46.317342 -2.775520 -5.351307 -8.707023 1.063349 -3.264153 -2.636876 -13.095986 5.535200 -28.840334 0.549344 3.039977 -3.185542 -24.653631 -30.203236 6.459920 -52.355512 -22.643817 24.233418 -18.976725 -43.139910 45.493368 -1.503107 -17.331658 -8.253286 22.554673 27.618531 5.235953 50.575011 9.403424 9.277727 -2.913660 12.171528 -18.283314 4.063231 13.551173 -24.800487 
-0.272399 0.601518 0.904457 167.717147 4.634909 107.626299 14.038063 0.849603 -53.619268 -8.124452 10.188710 49.379045 2.877353 3.845116 -19.632441 0.000000 -0.000000 0.000000 -13.844498 -6.545029 -26.147873 -7.760438 -8.471683 41.374022 11.988022 -10.547931 -18.642220 0.000000 -0.000000 0.000000 -1.910200 8.776282 45.801171 -3.093868 -5.196012 -8.259274 1.468478 -3.475821 -3.081994 -12.613769 5.538702 -28.252728 1.406277 2.495633 -4.902649 -25.345347 -28.817659 6.908050 -48.328640 -21.228157 22.814734 -22.703501 -48.424497 47.351538 3.218283 -18.232745 -9.640930 22.603780 26.971592 5.023606 50.649542 7.925764 11.363209 -3.949210 18.045063 -15.338670 -3.114153 12.508871 -25.112424 
-0.275791 0.613196 0.915551 166.326028 5.735163 108.269149 14.848260 1.031265 -51.636924 -8.603019 9.938092 46.712385 2.806273 5.169470 -19.636667 0.000000 -0.000000 0.000000 -11.713734 -5.237349 -27.558344 -7.256111 -9.159540 40.276655 10.858218 -10.510228 -18.238882 0.000000 -0.000000 0.000000 -3.592390 8.352536 41.964477 -3.246875 -3.721255 -8.269121 1.633637 -3.176697 -2.157194 -11.280826 6.241717 -27.388129 2.308673 1.684136 -5.635991 -24.779889 -26.354897 6.643940 -43.005304 -18.514975 19.825666 -28.226380 -53.868884 50.048699 9.636275 -19.484695 -13.272917 22.976666 26.025551 5.609820 50.088562 7.015980 12.358088 -3.466423 25.158148 -10.877004 -12.316990 13.107587 -29.081529 
-0.279371 0.620417 0.923364 166.917610 5.369009 108.140485 13.739803 -0.512311 -50.055101 -8.459749 8.619843 44.560012 2.894063 6.240509 -19.141707 0.000000 -0.000000 0.000000 -11.308549 -5.794307 -27.327136 -6.610360 -9.838004 39.176267 10.853049 -11.107719 -18.117986 0.000000 -0.000000 0.000000 -3.119603 7.945167 41.032029 -2.953633 -4.456735 -8.462967 1.324554 -3.453917 -1.688245 -10.490901 6.173067 -27.479016 2.211734 2.015463 -5.360339 -24.043148 -24.692816 6.486223 -40.584767 -17.469364 18.853414 -27.609389 -56.421021 47.184096 13.437534 -20.162618 -13.928207 21.921467 25.204006 4.633817 50.446625 7.160088 13.734809 -3.572736 27.508899 -12.299130 -13.439982 14.319446 -30.779413 
-0.279344 0.627899 0.930079 166.614185 5.253204 107.970502 12.751006 -0.660832 -48.266865 -8.099761 7.725351 42.684457 2.606055 6.578694 -18.872332 0.000000 -0.000000 0.000000 -10.490577 -5.483109 -27.625991 -6.693652 -10.483398 38.419899 10.319149 -11.894206 -17.810708 0.000000 -0.000000 0.000000 -4.059487 7.638392 39.107298 -2.728061 -4.150131 -7.927832 1.567147 -3.178531 -1.709387 -9.695768 5.924649 -26.260350 2.096556 2.359973 -6.183548 -23.861708 -22.832449 6.555102 -37.941248 -16.490912 17.951069 -25.648980 -58.199888 43.557218 13.330071 -19.850082 -13.222299 21.933653 24.029713 4.290479 50.274480 7.503172 14.434226 -4.398984 29.284370 -14.352956 -10.318605 14.717739 -32.200723 
-0.278312 0.635699 0.937167 166.489953 5.433466 107.279324 12.264558 -0.755294 -45.996694 -7.923261 6.861154 41.125268 2.494086 6.906381 -18.817129 0.000000 -0.000000 0.000000 -9.337947 -5.126736 -27.278270 -6.789055 -11.141111 37.720307 9.843687 -12.032865 -17.614009 0.000000 -0.000000 0.000000 -3.863959 7.526506 37.940967 -2.700020 -3.810147 -7.639597 1.523284 -3.349360 -1.664475 -9.085892 6.204541 -25.208559 1.959710 2.427559 -6.335808 -23.370901 -21.495009 6.352903 -35.653392 -14.933985 15.861875 -24.239978 -58.798651 42.130272 11.113085 -19.595267 -12.017137 21.955779 23.316291 4.026446 50.439451 7.180725 13.870287 -4.524119 30.817307 -14.839256 -8.802435 15.281779 -35.307237 
-0.276247 0.642304 0.943600 166.507449 5.220260 106.928968 11.551451 -1.038295 -44.176342 -7.723173 6.085956 39.406128 2.513294 7.267443 -18.478296 0.000000 -0.000000 0.000000 -8.875926 -4.807749 -27.391695 -6.264674 -11.447315 37.057499 9.507347 -12.355465 -17.476449 0.000000 -0.000000 0.000000 -4.237988 7.284898 36.388991 -2.489852 -3.590924 -7.226924 1.596451 -3.179090 -1.642102 -8.519887 6.289541 -24.315446 1.604607 2.611456 -6.483309 -23.047225 -20.284962 5.951048 -33.403658 -13.800693 14.881679 -22.461157 -58.663562 40.066347 9.738516 -18.848337 -9.716857 22.044696 22.584504 3.919660 50.508466 6.755550 14.086186 -5.054608 32.211683 -16.672674 -8.324189 15.536885 -37.437354 
-0.273011 0.648227 0.949499 166.541665 4.977743 106.654102 10.997610 -1.206217 -42.391115 -7.706556 5.303521 37.485625 2.575103 7.654802 -17.991526 0.000000 -0.000000 0.000000 -8.594878 -4.545540 -27.888505 -6.091427 -11.935589 36.968061 9.112501 -13.179100 -16.393460 0.000000 -0.000000 0.000000 -4.614073 6.937148 34.801397 -2.354748 -3.239729 -6.725045 1.594691 -3.041802 -1.744697 -8.106769 6.550089 -23.212964 1.501831 2.637403 -6.687222 -22.623027 -19.208014 5.753830 -31.277684 -12.632445 13.900672 -21.130138 -58.399647 38.319522 7.862077 -18.051110 -8.706239 22.217523 21.803957 4.051814 50.770457 6.527445 14.134351 -5.882672 33.074819 -17.905171 -7.949032 15.475583 -37.959601 
